<svg xmlns="http://www.w3.org/2000/svg" viewBox="0 0 500 500"><g id="freepik--background-simple--inject-99"><path d="M375.1,87.76c-5.86-4.2-11.86-8.3-18-12.38-29.6-19.77-63.65-40-99.33-44.54a75.69,75.69,0,0,0-18.11-.36c-23.61,2.63-47,20.07-65.85,33.4a571.73,571.73,0,0,0-81.24,70.06C71,156.32,48.89,181.37,36.33,210.39,20,248,44.86,292.49,66.71,323,109.12,382.26,168,428.54,241.87,435.14c89.2,8,169.91-62,200.21-143.74,18-48.59,19.3-107.35-11.82-150.84C414.81,119,395.86,102.68,375.1,87.76Z" style="fill:#92E3A9"></path><path d="M375.1,87.76c-5.86-4.2-11.86-8.3-18-12.38-29.6-19.77-63.65-40-99.33-44.54a75.69,75.69,0,0,0-18.11-.36c-23.61,2.63-47,20.07-65.85,33.4a571.73,571.73,0,0,0-81.24,70.06C71,156.32,48.89,181.37,36.33,210.39,20,248,44.86,292.49,66.71,323,109.12,382.26,168,428.54,241.87,435.14c89.2,8,169.91-62,200.21-143.74,18-48.59,19.3-107.35-11.82-150.84C414.81,119,395.86,102.68,375.1,87.76Z" style="fill:#fff;opacity:0.7000000000000001"></path></g><g id="freepik--Pencils--inject-99"><path d="M74.27,344.23l.72-6,2.53,5.45,4.83,30.18a1.39,1.39,0,0,1-1.16,1.6l-.48.08a1.4,1.4,0,0,1-1.61-1.16Z" style="fill:#92E3A9;stroke:#263238;stroke-linecap:round;stroke-linejoin:round"></path><path d="M78.59,371.22l.51,3.19a1.4,1.4,0,0,0,1.61,1.16l.48-.08a1.39,1.39,0,0,0,1.16-1.6l-.51-3.2Z" style="fill:#fff;stroke:#263238;stroke-linecap:round;stroke-linejoin:round"></path><polygon points="77.61 344.27 77.52 343.71 74.99 338.26 74.27 344.23 74.36 344.79 77.61 344.27" style="fill:#fff;stroke:#263238;stroke-linecap:round;stroke-linejoin:round"></polygon><polygon points="76.85 342.25 74.99 338.26 74.46 342.63 76.85 342.25" style="fill:#fff;stroke:#263238;stroke-linecap:round;stroke-linejoin:round"></polygon><path d="M79.93,340.48l1.61-5.79,1.68,5.77.2,30.56A1.4,1.4,0,0,1,82,372.44h-.49a1.41,1.41,0,0,1-1.41-1.39Z" style="fill:#92E3A9;stroke:#263238;stroke-linecap:round;stroke-linejoin:round"></path><path d="M80.11,367.81l0,3.24a1.41,1.41,0,0,0,1.41,1.39H82A1.4,1.4,0,0,0,83.42,371l0-3.23Z" style="fill:#fff;stroke:#263238;stroke-linecap:round;stroke-linejoin:round"></path><polygon points="83.22 341.03 83.22 340.46 81.54 334.69 79.93 340.48 79.93 341.06 83.22 341.03" style="fill:#fff;stroke:#263238;stroke-linecap:round;stroke-linejoin:round"></polygon><polygon points="82.77 338.92 81.54 334.69 80.36 338.94 82.77 338.92" style="fill:#fff;stroke:#263238;stroke-linecap:round;stroke-linejoin:round"></polygon><path d="M95,342.66l3.07-5.17.12,6-7.78,29.56a1.4,1.4,0,0,1-1.71,1l-.47-.13a1.39,1.39,0,0,1-1-1.71Z" style="fill:#92E3A9;stroke:#263238;stroke-linecap:round;stroke-linejoin:round"></path><path d="M88.05,369.1l-.82,3.12a1.39,1.39,0,0,0,1,1.71l.47.13a1.4,1.4,0,0,0,1.71-1l.82-3.13Z" style="fill:#fff;stroke:#263238;stroke-linecap:round;stroke-linejoin:round"></path><polygon points="98.04 344.06 98.19 343.5 98.08 337.49 95 342.67 94.86 343.22 98.04 344.06" style="fill:#fff;stroke:#263238;stroke-linecap:round;stroke-linejoin:round"></polygon><polygon points="98.16 341.9 98.08 337.49 95.82 341.28 98.16 341.9" style="fill:#fff;stroke:#263238;stroke-linecap:round;stroke-linejoin:round"></polygon><rect x="73.8" y="351.54" width="23.9" height="27.58" style="fill:#fff;stroke:#263238;stroke-linecap:round;stroke-linejoin:round"></rect></g><g id="freepik--Desk--inject-99"><polyline points="209.69 458.66 209.69 382 65.67 382" style="fill:#fff;stroke:#263238;stroke-linecap:round;stroke-linejoin:round"></polyline><polyline points="63.83 387.96 214.01 387.96 214.01 378.54 63.83 378.54" style="fill:#fff;stroke:#263238;stroke-linecap:round;stroke-linejoin:round"></polyline><rect x="63.26" y="388.17" width="146.25" height="4.27" transform="translate(272.77 780.61) rotate(180)" style="fill:#263238"></rect></g><g id="freepik--Character--inject-99"><path d="M373.81,135.77s-23.95,9.37-24.21,21.61,2.6,13.27,2.6,13.27-22.65,7.81-22.12,29.42,26.29,33.06,52.84,37.22,42.95,4.17,48.93-6.77-4.42-18-3.12-29.15,16.14-5.21,11.19-31.76S405.3,124.06,373.81,135.77Z" style="fill:#263238"></path><path d="M309,323.75s10.1,8.61,14,9S327.3,318,328.27,317,310.52,321.32,309,323.75Z" style="fill:#fff;stroke:#263238;stroke-linecap:round;stroke-linejoin:round"></path><path d="M324.33,460.31S312.75,449.66,307.89,401,328.27,317,328.27,317l68.08,6.25s32.19,37.29,11.81,135.94" style="fill:#fff;stroke:#263238;stroke-linecap:round;stroke-linejoin:round"></path><line x1="363.53" y1="396.59" x2="367.18" y2="401.1" style="fill:none;stroke:#263238;stroke-linecap:round;stroke-linejoin:round"></line><line x1="329.93" y1="355.17" x2="360.88" y2="393.32" style="fill:none;stroke:#263238;stroke-linecap:round;stroke-linejoin:round"></line><line x1="350.34" y1="392.93" x2="379.36" y2="448.75" style="fill:none;stroke:#263238;stroke-linecap:round;stroke-linejoin:round"></line><path d="M363.1,231.73s-30.2,7-32,13.7-13,37.56-11.94,44.23,5.27,12.64,6.67,17.91-2.81,10.18.35,14.39,19.66,13.7,43.19,11.59,28.43-4.56,28.78-10.18a47.2,47.2,0,0,0-.7-10.89L401,297s11.59-50.91,10.89-52-29.49-9.84-36.16-11.24S363.1,231.73,363.1,231.73Z" style="fill:#92E3A9;stroke:#263238;stroke-linecap:round;stroke-linejoin:round"></path><path d="M370,316.28c.72.47,1.46.94,2.23,1.41" style="fill:none;stroke:#263238;stroke-linecap:round;stroke-linejoin:round"></path><path d="M354.13,302.54s4.5,5.89,13.8,12.35" style="fill:none;stroke:#263238;stroke-linecap:round;stroke-linejoin:round"></path><path d="M393.91,276.1s-.48,11.81,7.1,20.94" style="fill:none;stroke:#263238;stroke-linecap:round;stroke-linejoin:round"></path><path d="M362.62,209.9s-2.77,14.36-4.85,23.18-5.88,24.39,5,22.48,19.89-20.41,20.41-22,2.42-19.89,2.42-19.89Z" style="fill:#fff;stroke:#263238;stroke-linecap:round;stroke-linejoin:round"></path><path d="M382.43,213l-16.29,10.4,13.77,13.53a36.28,36.28,0,0,0,1.84-3.75c.52-1.56,2.42-19.89,2.42-19.89Z" style="fill:#263238"></path><path d="M359,170.69s-6.73,25.17-5.73,30.15S362.49,225.26,369,227s30.65-8,33.39-12.21,11-30.66,11-30.66-12.22-9.22-16.7-15.2a25.46,25.46,0,0,1-5-12s-11.47,9.72-20.44,10.47S359,170.69,359,170.69Z" style="fill:#fff;stroke:#263238;stroke-linecap:round;stroke-linejoin:round"></path><path d="M408.59,199.59s6.23-5,8.22.25-2.24,10-6.23,11a30.51,30.51,0,0,1-6.72,1Z" style="fill:#fff;stroke:#263238;stroke-linecap:round;stroke-linejoin:round"></path><path d="M356,181.9s-1.75-4.24-4.74-.5,2.09,14.95,2.09,14.95Z" style="fill:#fff;stroke:#263238;stroke-linecap:round;stroke-linejoin:round"></path><path d="M376.39,193.21a18.22,18.22,0,0,1-1.73,3.32c-.58.58-4.05-1.73-4.2,1.31s4.2,6.07,5.5,5.64" style="fill:none;stroke:#263238;stroke-linecap:round;stroke-linejoin:round"></path><path d="M366,203.33a18.08,18.08,0,0,0,20.11,5.36" style="fill:none;stroke:#263238;stroke-linecap:round;stroke-linejoin:round"></path><path d="M364.82,174.11s6.22-2.75,11,1.16" style="fill:none;stroke:#263238;stroke-linecap:round;stroke-linejoin:round"></path><path d="M394,182.94s6.95-2.17,10.56,5.35" style="fill:none;stroke:#263238;stroke-linecap:round;stroke-linejoin:round"></path><path d="M371.6,185.58c-.32,1.08-1.11,1.79-1.76,1.59s-.92-1.22-.6-2.29,1.11-1.78,1.76-1.59S371.92,184.51,371.6,185.58Z" style="fill:#263238"></path><path d="M396.77,193.29c-.32,1.07-1.11,1.78-1.76,1.59s-.92-1.23-.59-2.3,1.1-1.78,1.76-1.59S397.09,192.22,396.77,193.29Z" style="fill:#263238"></path><circle cx="368.73" cy="182.94" r="11.57" transform="translate(-23.52 58.17) rotate(-8.74)" style="fill:none;stroke:#263238;stroke-linecap:round;stroke-linejoin:round"></circle><circle cx="396.36" cy="191.76" r="11.57" transform="translate(66.66 483.6) rotate(-67.33)" style="fill:none;stroke:#263238;stroke-linecap:round;stroke-linejoin:round"></circle><path d="M379.87,187a4.21,4.21,0,0,1,5.2,2" style="fill:none;stroke:#263238;stroke-linecap:round;stroke-linejoin:round"></path><line x1="407.21" y1="196.68" x2="410.25" y2="198.42" style="fill:none;stroke:#263238;stroke-linecap:round;stroke-linejoin:round"></line><path d="M397.75,266.83s1.13,27.12,5,32.77,27.81,20.57,27.81,20.57L410,345.26a63.26,63.26,0,0,1-16.5-9.72c-8.37-6.78-12.66-5.87-12.66-5.87s-5.88.9-7,2.71-4.29,6.1-3.84,7.46,2.94,1.58,3.84.23L376.5,336l5.66-.68,1.8,1.35s-9.72,5.66-10.39,7.24-4.75,7.23-3.39,7.91,2.48.23,3.84-1.58a35.28,35.28,0,0,1,4.29-4.3l7.24-2.94-4.75,6.33a50.09,50.09,0,0,0-3.17,8.59c0,.68,2.49,1.81,3.85-.9s2.48-5.43,2.48-5.43l8.37-4.74s-4.52,6.1-5.65,7.68-1.81,4.3-.46,4.52,4.75-3.84,4.75-3.84l4.52-3.84s7.46,5.2,11.3,5.42,8.37-2,8.37-2S454,328.54,455.84,325.6s3.39-4.07,2-10-11.3-13.33-23.28-35.48-17.18-31-19.44-33.23-8.59-3.17-8.59-3.17" style="fill:#92E3A9;stroke:#263238;stroke-linecap:round;stroke-linejoin:round"></path><path d="M430.53,320.17s6.78-6.78,15.37-5.87" style="fill:none;stroke:#263238;stroke-linecap:round;stroke-linejoin:round"></path><path d="M433.47,317.91s5.19-6.55,9.49-7.91" style="fill:none;stroke:#263238;stroke-linecap:round;stroke-linejoin:round"></path><path d="M424.54,327.47,410,345.26a63.26,63.26,0,0,1-16.5-9.72c-8.37-6.78-12.66-5.87-12.66-5.87s-5.88.9-7,2.71-4.29,6.1-3.84,7.46,2.94,1.58,3.84.23L376.5,336l5.66-.68,1.8,1.35s-9.72,5.66-10.39,7.24-4.75,7.23-3.39,7.91,2.48.23,3.84-1.58a35.28,35.28,0,0,1,4.29-4.3l7.24-2.94-4.75,6.33a50.09,50.09,0,0,0-3.17,8.59c0,.68,2.49,1.81,3.85-.9s2.48-5.43,2.48-5.43l8.37-4.74s-4.52,6.1-5.65,7.68-1.81,4.3-.46,4.52,4.75-3.84,4.75-3.84l4.52-3.84s7.46,5.2,11.3,5.42,8.37-2,8.37-2,14.51-9.79,26.22-18.08Z" style="fill:#fff;stroke:#263238;stroke-linecap:round;stroke-linejoin:round"></path><polygon points="282.46 274.81 293.1 249.17 305.68 276.02 282.46 274.81" style="fill:#fff;stroke:#263238;stroke-linecap:round;stroke-linejoin:round"></polygon><polygon points="282.46 274.81 293.55 250.16 295.98 251.16 306.01 272.07 284.52 276.37 282.46 274.81" style="fill:#fff;stroke:#263238;stroke-linecap:round;stroke-linejoin:round"></polygon><path d="M282.46,274.81s8.22-3.89,11.52-4.89,30.94-3.87,30.94-3.87L318,273.79l-27.36,7.45Z" style="fill:#fff;stroke:#263238;stroke-linecap:round;stroke-linejoin:round"></path><polygon points="282.46 274.81 326.73 265.62 348.74 317.14 305.68 327.3 282.46 274.81" style="fill:#263238"></polygon><path d="M287.53,287s-2.72,2.15-2.29,5.16,4,4,4.73,3.44a3.48,3.48,0,0,0,1-1.43Z" style="fill:#fff;stroke:#263238;stroke-linecap:round;stroke-linejoin:round"></path><path d="M292,297.25s-1.92,2.79-1.4,5.4,3.58,5.93,6,6,3.74-.79,2.7-2.27-4.8-4.27-4.8-4.27Z" style="fill:#fff;stroke:#263238;stroke-linecap:round;stroke-linejoin:round"></path><path d="M293.06,307.45s.18,4.88,1,5.92,7.93,2.53,8.54,1.57-1.31-2.79-2.18-3.4-2.35-1.39-2.35-1.39l-.44-1S293.76,307.79,293.06,307.45Z" style="fill:#fff;stroke:#263238;stroke-linecap:round;stroke-linejoin:round"></path><path d="M299.69,318.86s1.39,2.18,2.35,2.35,3.31-.43,3.92-1.57-1.57-1.39-1.57-1.39S302,318.42,299.69,318.86Z" style="fill:#fff;stroke:#263238;stroke-linecap:round;stroke-linejoin:round"></path><path d="M296.11,314.59s1.22,3.4,2.36,4,6,.43,6.27-.87-3.57-2.35-3.57-2.35S297.25,314.68,296.11,314.59Z" style="fill:#fff;stroke:#263238;stroke-linecap:round;stroke-linejoin:round"></path></g></svg>